<?xml version="1.0" encoding="UTF-8"?>
<svg width="100px" height="100px" viewBox="0 0 100 100" version="1.1" xmlns="http://www.w3.org/2000/svg" xmlns:xlink="http://www.w3.org/1999/xlink">
    <!-- Generator: Sketch 46 (44423) - http://www.bohemiancoding.com/sketch -->
    <title>instagram</title>
    <desc>Created with Sketch.</desc>
    <defs></defs>
    <g id="Raf-Please-03" stroke="none" stroke-width="1" fill="none" fill-rule="evenodd">
        <g id="List" transform="translate(-70.000000, -3471.000000)" fill="#F8D11C">
            <path d="M120,3471 C106.41875,3471 104.71875,3471.0625 99.3875,3471.3 C94.0625,3471.55 90.4375,3472.3875 87.25,3473.625 C83.9625,3474.9 81.16875,3476.6125 78.39375,3479.39375 C75.6125,3482.16875 73.89375,3484.95625 72.625,3488.25 C71.3875,3491.4375 70.54375,3495.0625 70.3,3500.3875 C70.05,3505.71875 70,3507.41875 70,3521 C70,3534.58125 70.0625,3536.28125 70.3,3541.6125 C70.55,3546.9375 71.3875,3550.56875 72.625,3553.75 C73.9,3557.0375 75.6125,3559.83125 78.39375,3562.60625 C81.16875,3565.3875 83.95625,3567.10625 87.25,3568.375 C90.4375,3569.6125 94.0625,3570.45625 99.3875,3570.7 C104.71875,3570.95 106.41875,3571 120,3571 C133.58125,3571 135.28125,3570.9375 140.6125,3570.7 C145.9375,3570.45 149.56875,3569.6125 152.75,3568.375 C156.0375,3567.1 158.83125,3565.3875 161.60625,3562.60625 C164.3875,3559.83125 166.10625,3557.04375 167.375,3553.75 C168.6125,3550.5625 169.45625,3546.9375 169.7,3541.6125 C169.95,3536.28125 170,3534.58125 170,3521 C170,3507.41875 169.9375,3505.71875 169.7,3500.3875 C169.45,3495.0625 168.6125,3491.43125 167.375,3488.25 C166.1,3484.9625 164.3875,3482.16875 161.60625,3479.39375 C158.83125,3476.6125 156.04375,3474.89375 152.75,3473.625 C149.5625,3472.3875 145.9375,3471.54375 140.6125,3471.3 C135.28125,3471.05 133.58125,3471 120,3471 Z M120.563231,3480.39096 C133.948951,3480.39096 135.540698,3480.45368 140.823546,3480.69199 C145.71159,3480.91777 148.362414,3481.73306 150.12963,3482.42292 C152.473384,3483.33229 154.140332,3484.41726 155.895015,3486.17328 C157.649697,3487.92929 158.73384,3489.59751 159.642515,3491.94305 C160.331855,3493.71161 161.146529,3496.36445 161.372131,3501.25622 C161.610266,3506.54935 161.666667,3508.13604 161.666667,3521.53195 C161.666667,3534.92786 161.603999,3536.52082 161.353331,3541.80768 C161.102662,3546.69945 160.287988,3549.35229 159.598648,3551.12085 C158.65864,3553.46639 157.593297,3555.1346 155.838614,3556.89062 C154.083932,3558.64664 152.391917,3559.73161 150.073229,3560.64097 C148.318547,3561.33084 145.623856,3562.14613 140.735812,3562.37191 C135.409097,3562.61022 133.842417,3562.66667 120.431629,3562.66667 C107.020842,3562.66667 105.454161,3562.60395 100.127447,3562.35309 C95.2394029,3562.10223 92.544712,3561.28694 90.7900296,3560.59707 C88.4086748,3559.65635 86.7793269,3558.5902 85.0246444,3556.83418 C83.269962,3555.07816 82.1419518,3553.38486 81.2646106,3551.06441 C80.5752711,3549.30839 79.7605971,3546.61165 79.5099282,3541.71988 C79.3219265,3536.45183 79.2592593,3534.82124 79.2592593,3521.46296 C79.2592593,3508.10468 79.3219265,3506.4741 79.5099282,3501.14333 C79.7605971,3496.25156 80.5752711,3493.55482 81.2646106,3491.7988 C82.1419518,3489.41564 83.269962,3487.78505 85.0246444,3486.02903 C86.7793269,3484.27301 88.4086748,3483.14415 90.7900296,3482.26614 C92.544712,3481.57627 95.1767357,3480.76098 100.06478,3480.51012 C105.391494,3480.32197 106.958175,3480.25926 120.368962,3480.25926 L120.563231,3480.39096 Z M119.537037,3495.07407 C105.466705,3495.07407 94.0740741,3506.4791 94.0740741,3520.53704 C94.0740741,3534.60737 105.479101,3546 119.537037,3546 C133.60737,3546 145,3534.59497 145,3520.53704 C145,3506.4667 133.594973,3495.07407 119.537037,3495.07407 Z M120,3537.66667 C110.794901,3537.66667 103.333333,3530.2051 103.333333,3521 C103.333333,3511.7949 110.794901,3504.33333 120,3504.33333 C129.205099,3504.33333 136.666667,3511.7949 136.666667,3521 C136.666667,3530.2051 129.205099,3537.66667 120,3537.66667 Z M152.407407,3494.61111 C152.407407,3497.93383 149.711613,3500.62963 146.388889,3500.62963 C143.066165,3500.62963 140.37037,3497.93383 140.37037,3494.61111 C140.37037,3491.28839 143.066165,3488.59259 146.388889,3488.59259 C149.711613,3488.59259 152.407407,3491.28839 152.407407,3494.61111 Z" id="instagram"></path>
        </g>
    </g>
</svg>