<?xml version="1.0" encoding="UTF-8"?>
<svg width="104px" height="24px" viewBox="0 0 104 24" version="1.1" xmlns="http://www.w3.org/2000/svg" xmlns:xlink="http://www.w3.org/1999/xlink">
    <!-- Generator: Sketch 45.2 (43514) - http://www.bohemiancoding.com/sketch -->
    <title>Artboard</title>
    <desc>Created with Sketch.</desc>
    <defs></defs>
    <g id="Raf-Please-00" stroke="none" stroke-width="1" fill="none" fill-rule="evenodd">
        <g id="Artboard" fill="#FFFFFF">
            <path d="M92.2435288,11.8076531 C92.0545319,11.2268473 92.2317509,10.6205046 92.5197,10.0806 C92.6887,9.7816 93.1047,9.3396 93.3777,9.8206 C93.7287,10.4186 93.1567,11.3286 92.8447,11.8746 C93.0917,12.4856 93.6117,13.0836 93.7287,13.6816 C94.0017,15.0726 92.2987,15.8266 91.2717,15.1246 C90.9857,14.9166 91.2587,14.4486 91.5447,14.6436 C92.2727,15.1506 93.5077,14.6046 93.1567,13.5906 C93.0100487,13.1506462 92.7457546,12.7695139 92.5131178,12.3642584 C92.078144,13.1133661 91.3026669,14.4181871 90.3227,14.3836 C89.8287,14.3576 89.6597,14.0586 89.6597,13.6556 C89.3737,13.9676 89.0487,14.2146 88.6457,14.2796 C87.9529098,14.3968414 87.714518,13.6664552 87.6797713,13.0842896 C86.9306004,14.0472291 85.8492106,15.0954222 84.8367,14.6696 C84.2776632,14.4351652 84.1077607,13.8866433 84.1303503,13.284939 C83.7291983,13.7998636 83.2396273,14.2333442 82.6007,14.4096 C82.1327,14.5396 81.5737,14.1756 81.4177,13.7336 C81.3284698,13.4930664 81.2901818,13.2351661 81.2848692,12.9706101 C80.2964286,14.3307312 78.7576097,15.9146688 77.4267,14.3966 C77.2967,14.2666 77.3357,14.1106 77.4397,14.0066 C77.5437,13.9156 77.6997,13.8766 77.8167,14.0066 C78.5317,14.7346 79.7407,12.2646 79.5847,11.6666 C79.3637,10.7826 78.5317,11.1986 78.1027,11.6536 C77.6477,12.1216 77.2837,12.6936 77.0757,13.3306 C77.0757,13.3436 77.0627,13.3566 77.0627,13.3696 C76.6857,14.9686 76.3737,16.5806 76.2177,18.2186 C76.1917,18.5566 75.6457,18.5826 75.6847,18.2316 C75.9317,15.5406 76.5817,12.9146 77.2577,10.3016 C77.3357,9.9636 77.8817,10.0936 77.7907,10.4316 C77.6997,10.7566 77.6217,11.0816 77.5437,11.4196 C77.7777,11.1336 78.0637,10.9126 78.3627,10.7566 C79.1297,10.3666 79.9747,10.7176 80.1307,11.6146 C80.2477,12.2906 79.5847,13.8246 78.7657,14.4356 C79.8040113,14.3490741 80.877582,12.7346422 81.3941225,11.9167616 C81.4462732,11.6437673 81.508456,11.3787449 81.5607,11.1336 C81.7427,10.2886 82.0287,9.4826 82.3927,8.7026 C82.6397,8.2086 83.0167,7.3116 83.6147,7.1296 C84.0177,6.9996 84.3817,7.2206 84.4207,7.6496 C84.4987,8.3776 84.1087,9.1706 83.7707,9.7816 C83.2637,10.7176 82.6527,11.6016 81.8727,12.3166 C81.8597,12.5246 81.8467,12.7196 81.8467,12.9276 C81.8467,13.6946 82.3407,14.2406 83.0947,13.5256 C83.6404745,12.9922295 84.0678964,12.5180352 84.4560141,11.8658721 C84.529513,11.6799772 84.6074286,11.5142125 84.6807,11.3806 C84.9927,10.8346 85.4347,10.2366 86.0977,10.1586 C86.5007,10.0936 86.8257,10.2886 86.9167,10.6916 C87.2157,11.9006 85.6817,13.0446 84.7457,13.4086 C84.7327,13.4086 84.7327,13.4086 84.7197,13.4216 C84.7327,13.9676 84.9147,14.4096 85.5777,14.1496 C86.5787,13.7336 87.3457,12.7196 87.9177,11.8356 C87.9278806,11.8206685 87.9387344,11.8072606 87.9501357,11.7953006 C88.4083475,10.7626485 89.3813271,9.68737625 90.3617,10.2756 C90.6607,10.4446 90.3877,10.9256 90.0887,10.7436 C89.3347,10.2886 88.6197,11.6666 88.3857,12.2256 C88.2427,12.5506 88.1127,13.0316 88.2427,13.3826 C88.4897,14.0326 89.0097,13.5516 89.2047,13.3176 C89.5817,12.8756 89.8547,12.3426 90.1277,11.8226 C90.2707,11.5496 90.7257,11.7446 90.6217,12.0306 C90.5047,12.3946 89.9587,13.7726 90.3877,13.8246 C90.9597,13.8896 91.8437,12.4336 92.2337,11.8226 C92.2369173,11.8174523 92.2401948,11.8124709 92.2435288,11.8076531 L92.2435288,11.8076531 Z M6.1872,7 L10.2048,7 C12.4944,7 13.8336,8.1664 13.8336,10.1248 C13.8336,11.4352 13.0128,12.3136 12.1344,12.7024 C11.9328,12.8032 11.9472,12.8752 12.12,12.976 C12.7536,13.3648 13.1136,13.9984 13.3728,14.56 L14.3808,16.9936 C14.424,17.1232 14.3664,17.2096 14.2368,17.2096 L12.1632,17.2096 C12.048,17.2096 11.9904,17.1664 11.9472,17.0656 L11.3136,15.5248 C10.7952,14.272 10.3344,13.5808 8.736,13.5808 L8.3328,13.5808 L8.3328,17.0224 C8.3328,17.1376 8.2608,17.2096 8.1456,17.2096 L6.1872,17.2096 C6.072,17.2096 6,17.1376 6,17.0224 L6,7.1872 C6,7.072 6.072,7 6.1872,7 Z M21.9336,11.0752 C22.668,11.0752 23.0424,11.4784 23.0424,12.256 C23.0424,13.0192 22.668,13.4368 21.9336,13.4368 C21.1848,13.4368 20.8104,13.0192 20.8104,12.256 C20.8104,11.4784 21.1848,11.0752 21.9336,11.0752 Z M36.456,15.856 L32.2224,15.856 L31.7904,17.0656 C31.7472,17.1664 31.6752,17.2096 31.5744,17.2096 L29.544,17.2096 C29.4,17.2096 29.3424,17.1232 29.3856,16.9936 L31.416,11.4928 C31.9488,10.024 32.424,8.6128 32.784,7.1584 C32.8128,7.0576 32.8848,7 33,7 L35.6784,7 C35.7936,7 35.8656,7.0576 35.8944,7.1584 C36.2544,8.6128 36.7296,10.024 37.2624,11.4928 L39.2928,16.9936 C39.336,17.1232 39.2784,17.2096 39.1344,17.2096 L37.104,17.2096 C37.0032,17.2096 36.9312,17.1664 36.888,17.0656 L36.456,15.856 Z M46.7592,11.0752 C47.4936,11.0752 47.868,11.4784 47.868,12.256 C47.868,13.0192 47.4936,13.4368 46.7592,13.4368 C46.0104,13.4368 45.636,13.0192 45.636,12.256 C45.636,11.4784 46.0104,11.0752 46.7592,11.0752 Z M57.048,11.4352 L60.72,11.4352 C60.8352,11.4352 60.9072,11.5072 60.9072,11.6224 L60.9072,13.2784 C60.9072,13.3936 60.8352,13.4656 60.72,13.4656 L57.048,13.4656 L57.048,17.0224 C57.048,17.1376 56.976,17.2096 56.8608,17.2096 L54.9024,17.2096 C54.7872,17.2096 54.7152,17.1376 54.7152,17.0224 L54.7152,7.1872 C54.7152,7.072 54.7872,7 54.9024,7 L61.8288,7 C61.9584,7 62.016,7.0864 61.9872,7.216 L61.5264,8.8864 C61.4976,8.9872 61.4256,9.0448 61.3248,9.0448 L57.048,9.0448 L57.048,11.4352 Z M8.3328,11.5504 L9.9024,11.5504 C10.9824,11.5504 11.4864,11.1472 11.4864,10.2976 C11.4864,9.5344 10.968,9.0448 10.2048,9.0448 L8.3328,9.0448 L8.3328,11.5504 Z M35.7216,13.8256 L35.52,13.2496 C35.1024,12.112 34.6416,10.7584 34.4688,9.8224 C34.4256,9.6496 34.2528,9.6496 34.2096,9.8224 C34.0224,10.7584 33.576,12.0976 33.1584,13.2496 L32.9568,13.8256 L35.7216,13.8256 Z M82.6397,9.4956 C82.4057,10.0936 82.1847,10.7306 82.0287,11.3806 C82.7567,10.5746 83.3677,9.5996 83.7057,8.5986 C83.8097,8.3126 84.0307,7.2336 83.4977,7.9096 C83.1337,8.3776 82.8607,8.9366 82.6397,9.4956 Z M85.5777,11.0426 C85.2787,11.3806 85.0447,11.7966 84.9017,12.2256 C84.8627,12.3556 84.8107,12.5766 84.7717,12.8236 C85.4737,12.4856 86.3837,11.7706 86.3967,10.9386 C86.3967,10.4186 85.7727,10.8346 85.5777,11.0426 Z M96.6797,13.5256 C97.0047,13.2916 97.3557,13.7596 97.0047,14.0196 C96.4067,14.4616 95.7567,14.6826 95.1327,14.3446 C94.1967,13.8506 94.3527,12.4726 94.7037,11.6536 C94.9117,11.1726 95.2757,10.4836 95.8347,10.3276 C96.2117,10.2366 96.7057,10.3016 96.8487,10.7306 C97.2127,11.7576 96.0037,12.9536 95.0807,13.1746 C95.0547,13.1746 95.0417,13.1876 95.0157,13.1876 C95.0807,13.6556 95.3277,14.0716 95.9517,13.8766 C96.2117,13.7986 96.4587,13.6816 96.6797,13.5256 Z M96.1597,10.8216 C95.5097,10.8736 95.1067,11.9266 95.0287,12.4596 C95.0157,12.5116 95.0157,12.5636 95.0027,12.6286 C95.4187,12.5116 95.7827,12.2126 96.0297,11.8616 C96.1077,11.7446 96.6667,10.7956 96.1597,10.8216 Z" id="Combined-Shape"></path>
        </g>
    </g>
</svg>