<?xml version="1.0" encoding="UTF-8"?>
<svg width="1218px" height="171px" viewBox="0 0 1218 171" version="1.1" xmlns="http://www.w3.org/2000/svg" xmlns:xlink="http://www.w3.org/1999/xlink">
    <!-- Generator: Sketch 46 (44423) - http://www.bohemiancoding.com/sketch -->
    <title>Artboard</title>
    <desc>Created with Sketch.</desc>
    <defs></defs>
    <g id="Raf-Please-03" stroke="none" stroke-width="1" fill="none" fill-rule="evenodd">
        <g id="Artboard" fill="#222222">
            <path d="M18.2,84.6 L18.2,143 L0,143 L0,3 L46.8,3 C54.533372,3 61.266638,4.133322 67,6.4 C72.733362,8.666678 77.499981,11.699981 81.3,15.5 C85.100019,19.300019 87.933324,23.766641 89.8,28.9 C91.666676,34.033359 92.6,39.399972 92.6,45 C92.6,50.866696 91.533344,56.366641 89.4,61.5 C87.266656,66.633359 84.100021,71.166647 79.9,75.1 C75.699979,79.033353 70.466698,82.133322 64.2,84.4 C57.933302,86.666678 50.733374,87.8 42.6,87.8 C37.799976,87.8 33.40002,87.500003 29.4,86.9 C25.39998,86.299997 21.666684,85.533338 18.2,84.6 Z M18.2,11.8 L18.2,76.4 C21.000014,77.466672 24.133316,78.166665 27.6,78.5 C31.066684,78.833335 34.866646,79 39,79 C45.00003,79 50.133312,78.00001 54.4,76 C58.666688,73.99999 62.199986,71.400016 65,68.2 C67.800014,64.999984 69.833327,61.433353 71.1,57.5 C72.366673,53.566647 73,49.666686 73,45.8 C73,41.79998 72.300007,37.766687 70.9,33.7 C69.499993,29.633313 67.400014,25.966683 64.6,22.7 C61.799986,19.433317 58.266688,16.80001 54,14.8 C49.733312,12.79999 44.800028,11.8 39.2,11.8 L18.2,11.8 Z M206.4,101.8 L137.4,101.8 L119.8,143 L110.6,143 L169.8,3 L179.8,3 L245,143 L225.6,143 L206.4,101.8 Z M202.2,92.8 L170.8,25.4 L170,25.4 L141.2,92.8 L202.2,92.8 Z M329,3 L347.2,3 L347.2,18.6 L354.2,18.6 C363.800048,18.6 372.26663,20.133318 379.6,23.2 C386.93337,26.266682 393.099975,30.333308 398.1,35.4 C403.100025,40.466692 406.899987,46.199968 409.5,52.6 C412.100013,59.000032 413.4,65.599966 413.4,72.4 C413.4,77.600026 412.366677,83.299969 410.3,89.5 C408.233323,95.700031 404.733358,101.46664 399.8,106.8 C394.866642,112.13336 388.366707,116.599982 380.3,120.2 C372.233293,123.800018 362.133394,125.6 350,125.6 L347.2,125.6 L347.2,143 L329,143 L329,125.6 L326.4,125.6 C314.266606,125.6 304.133374,123.800018 296,120.2 C287.866626,116.599982 281.366691,112.13336 276.5,106.8 C271.633309,101.46664 268.166677,95.700031 266.1,89.5 C264.033323,83.299969 263,77.600026 263,72.4 C263,65.599966 264.266654,59.000032 266.8,52.6 C269.333346,46.199968 273.099975,40.466692 278.1,35.4 C283.100025,30.333308 289.299963,26.266682 296.7,23.2 C304.100037,20.133318 312.599952,18.6 322.2,18.6 L329,18.6 L329,3 Z M329,117.6 L329,27 L326.4,27 C318.533294,27 311.800028,28.366653 306.2,31.1 C300.599972,33.833347 296.033351,37.333312 292.5,41.6 C288.966649,45.866688 286.366675,50.733306 284.7,56.2 C283.033325,61.666694 282.2,67.06664 282.2,72.4 C282.2,78.800032 283.299989,84.733306 285.5,90.2 C287.700011,95.666694 290.79998,100.433313 294.8,104.5 C298.80002,108.566687 303.599972,111.766655 309.2,114.1 C314.800028,116.433345 320.999966,117.6 327.8,117.6 L329,117.6 Z M347.2,117.6 L348.6,117.6 C355.400034,117.6 361.599972,116.433345 367.2,114.1 C372.800028,111.766655 377.59998,108.566687 381.6,104.5 C385.60002,100.433313 388.699989,95.666694 390.9,90.2 C393.100011,84.733306 394.2,78.800032 394.2,72.4 C394.2,67.06664 393.366675,61.666694 391.7,56.2 C390.033325,50.733306 387.433351,45.866688 383.9,41.6 C380.366649,37.333312 375.800028,33.833347 370.2,31.1 C364.599972,28.366653 357.866706,27 350,27 L347.2,27 L347.2,117.6 Z M444,170.2 L437.4,170.2 L437.4,118.6 L456.2,118.6 L444,170.2 Z M690.4,3 L570.2,3 L570.2,143 L588.4,143 L588.4,14 L672.2,14 L672.2,143 L690.4,143 L690.4,3 Z M805.6,3 L794.6,3 L751.4,113.4 C749.133322,119.40003 746.966677,124.199982 744.9,127.8 C742.833323,131.400018 739.600022,133.2 735.2,133.2 C733.466658,133.2 731.800008,132.733338 730.2,131.8 C728.599992,130.866662 727.13334,130.06667 725.8,129.4 L720.4,143 C722.666678,143.800004 725.099987,144.399998 727.7,144.8 C730.300013,145.200002 732.93332,145.4 735.6,145.4 C739.866688,145.4 743.699983,143.600018 747.1,140 C750.500017,136.399982 753.53332,131.200034 756.2,124.4 L795.2,25.4 L796,25.4 L846.6,143 L866.4,143 L805.6,3 Z M914.6,126.6 L914.6,3 L896.4,3 L896.4,143 L914.6,143 L997.6,18 L997.6,143 L1015.8,143 L1015.8,3 L997.6,3 L914.6,126.6 Z M1103,9.4 C1113.13338,9.4 1120.83331,11.899975 1126.1,16.9 C1131.36669,21.900025 1134,28.199962 1134,35.8 C1134,37.80001 1133.7,40.399984 1133.1,43.6 C1132.5,46.800016 1131.06668,49.933318 1128.8,53 C1126.53332,56.066682 1123.16669,58.699989 1118.7,60.9 C1114.23331,63.100011 1108.13337,64.2 1100.4,64.2 L1086.4,64.2 L1086.4,73 L1100.4,73 C1106.40003,73 1111.86664,73.66666 1116.8,75 C1121.73336,76.33334 1125.96665,78.299987 1129.5,80.9 C1133.03335,83.500013 1135.76666,86.666648 1137.7,90.4 C1139.63334,94.133352 1140.6,98.33331 1140.6,103 C1140.6,106.200016 1140.03334,109.766647 1138.9,113.7 C1137.76666,117.633353 1135.80001,121.299983 1133,124.7 C1130.19999,128.100017 1126.40002,130.933322 1121.6,133.2 C1116.79998,135.466678 1110.73337,136.6 1103.4,136.6 C1096.19996,136.6 1090.46669,135.500011 1086.2,133.3 C1081.93331,131.099989 1078.66668,128.466682 1076.4,125.4 C1074.13332,122.333318 1072.63334,119.166683 1071.9,115.9 C1071.16666,112.633317 1070.73333,109.866678 1070.6,107.6 L1051.8,107.6 C1052.2,120.133396 1056.43329,129.566635 1064.5,135.9 C1072.56671,142.233365 1085.06658,145.4 1102,145.4 C1113.06672,145.4 1122.36663,144.133346 1129.9,141.6 C1137.43337,139.066654 1143.46664,135.80002 1148,131.8 C1152.53336,127.79998 1155.76666,123.333358 1157.7,118.4 C1159.63334,113.466642 1160.6,108.600024 1160.6,103.8 C1160.6,98.46664 1159.56668,93.633355 1157.5,89.3 C1155.43332,84.966645 1152.73335,81.233349 1149.4,78.1 C1146.06665,74.966651 1142.26669,72.566675 1138,70.9 C1133.73331,69.233325 1129.40002,68.4 1125,68.4 L1123.6,68.4 L1123.6,67.6 C1127.73335,67.6 1131.56665,66.700009 1135.1,64.9 C1138.63335,63.099991 1141.66665,60.700015 1144.2,57.7 C1146.73335,54.699985 1148.69999,51.266686 1150.1,47.4 C1151.50001,43.533314 1152.2,39.60002 1152.2,35.6 C1152.2,31.333312 1151.33334,27.100021 1149.6,22.9 C1147.86666,18.699979 1145.03335,14.966683 1141.1,11.7 C1137.16665,8.433317 1132.13336,5.766677 1126,3.7 C1119.86664,1.633323 1112.40004,0.6 1103.6,0.6 C1096.79997,0.6 1090.60003,1.26666 1085,2.6 C1079.39997,3.93334 1074.56669,5.999986 1070.5,8.8 C1066.43331,11.600014 1063.20001,15.133312 1060.8,19.4 C1058.39999,23.666688 1057.13333,28.666638 1057,34.4 L1072.2,34.4 C1072.33333,31.999988 1072.9,29.333348 1073.9,26.4 C1074.9,23.466652 1076.56666,20.766679 1078.9,18.3 C1081.23335,15.833321 1084.33331,13.733342 1088.2,12 C1092.06669,10.266658 1096.99997,9.4 1103,9.4 Z M1196.6,134.6 C1196.6,131.666652 1197.66666,129.133344 1199.8,127 C1201.93334,124.866656 1204.46665,123.8 1207.4,123.8 C1210.33335,123.8 1212.86666,124.866656 1215,127 C1217.13334,129.133344 1218.2,131.666652 1218.2,134.6 C1218.2,137.533348 1217.13334,140.066656 1215,142.2 C1212.86666,144.333344 1210.33335,145.4 1207.4,145.4 C1204.46665,145.4 1201.93334,144.333344 1199.8,142.2 C1197.66666,140.066656 1196.6,137.533348 1196.6,134.6 Z M1211.6,116.2 L1202.2,116.2 L1196,3 L1218,3 L1211.6,116.2 Z" id="Раф,-плиз!"></path>
        </g>
    </g>
</svg>