<?xml version="1.0" encoding="UTF-8"?>
<svg width="131px" height="68px" viewBox="0 0 131 68" version="1.1" xmlns="http://www.w3.org/2000/svg" xmlns:xlink="http://www.w3.org/1999/xlink">
    <!-- Generator: Sketch 45.2 (43514) - http://www.bohemiancoding.com/sketch -->
    <title>made-by</title>
    <desc>Created with Sketch.</desc>
    <defs></defs>
    <g id="Raf-Please-00" stroke="none" stroke-width="1" fill="none" fill-rule="evenodd">
        <g id="made-by" fill="#666666">
            <path d="M37.092,14.872 C37.5080021,14.872 37.8746651,14.8186672 38.192,14.712 C38.5093349,14.6053328 38.7733323,14.4546676 38.984,14.26 C39.1946677,14.0653324 39.3533328,13.8293347 39.46,13.552 C39.5666672,13.2746653 39.62,12.965335 39.62,12.624 C39.62,12.2879983 39.5680005,11.986668 39.464,11.72 C39.3599995,11.453332 39.204001,11.2266676 38.996,11.04 C38.787999,10.8533324 38.5253349,10.7106672 38.208,10.612 C37.8906651,10.5133328 37.5186688,10.464 37.092,10.464 L35.38,10.464 L35.38,14.872 L37.092,14.872 Z M37.092,9 C37.8440038,9 38.4959972,9.08799912 39.048,9.264 C39.6000028,9.44000088 40.0559982,9.68666508 40.416,10.004 C40.7760018,10.3213349 41.0439991,10.7026644 41.22,11.148 C41.3960009,11.5933356 41.484,12.0853306 41.484,12.624 C41.484,13.1733361 41.3906676,13.6759977 41.204,14.132 C41.0173324,14.5880023 40.7400018,14.9799984 40.372,15.308 C40.0039982,15.6360016 39.5466694,15.8919991 39,16.076 C38.4533306,16.2600009 37.817337,16.352 37.092,16.352 L35.38,16.352 L35.38,20.52 L33.508,20.52 L33.508,9 L37.092,9 Z M53.82,19.008 C54.2626689,19.008 54.6586649,18.9333341 55.008,18.784 C55.3573351,18.6346659 55.6533321,18.426668 55.896,18.16 C56.1386679,17.893332 56.3239994,17.5720019 56.452,17.196 C56.5800006,16.8199981 56.644,16.402669 56.644,15.944 L56.644,9 L58.508,9 L58.508,15.944 C58.508,16.6213367 58.4000011,17.2479971 58.184,17.824 C57.9679989,18.4000029 57.6573354,18.8973312 57.252,19.316 C56.8466646,19.7346688 56.3546696,20.0626655 55.776,20.3 C55.1973304,20.5373345 54.545337,20.656 53.82,20.656 C53.094663,20.656 52.4426696,20.5373345 51.864,20.3 C51.2853304,20.0626655 50.7933354,19.7346688 50.388,19.316 C49.9826646,18.8973312 49.6720011,18.4000029 49.456,17.824 C49.2399989,17.2479971 49.132,16.6213367 49.132,15.944 L49.132,9 L51.004,9 L51.004,15.936 C51.004,16.394669 51.0679994,16.8119981 51.196,17.188 C51.3240006,17.5640019 51.5079988,17.8866653 51.748,18.156 C51.9880012,18.4253347 52.2826649,18.6346659 52.632,18.784 C52.9813351,18.9333341 53.3773311,19.008 53.82,19.008 Z M70.452,14.52 C70.8786688,14.52 71.2519984,14.4680005 71.572,14.364 C71.8920016,14.2599995 72.1586656,14.1146676 72.372,13.928 C72.5853344,13.7413324 72.7453328,13.518668 72.852,13.26 C72.9586672,13.001332 73.012,12.7146682 73.012,12.4 C73.012,11.7706635 72.8040021,11.2906683 72.388,10.96 C71.9719979,10.6293317 71.3426709,10.464 70.5,10.464 L68.98,10.464 L68.98,14.52 L70.452,14.52 Z M75.876,20.52 L74.204,20.52 C73.8733317,20.52 73.6333341,20.3920013 73.484,20.136 L70.796,16.256 C70.7053329,16.122666 70.6066672,16.026667 70.5,15.968 C70.3933328,15.909333 70.2333344,15.88 70.02,15.88 L68.98,15.88 L68.98,20.52 L67.108,20.52 L67.108,9 L70.5,9 C71.2573371,9 71.9093306,9.07733256 72.456,9.232 C73.0026694,9.38666744 73.4519982,9.60666524 73.804,9.892 C74.1560018,10.1773348 74.4159992,10.519998 74.584,10.92 C74.7520008,11.320002 74.836,11.7653309 74.836,12.256 C74.836,12.656002 74.7760006,13.0293316 74.656,13.376 C74.5359994,13.7226684 74.3626678,14.0373319 74.136,14.32 C73.9093322,14.6026681 73.6306683,14.847999 73.3,15.056 C72.9693317,15.264001 72.5933354,15.4266661 72.172,15.544 C72.4013345,15.6826674 72.5986658,15.8773321 72.764,16.128 L75.876,20.52 Z M90.46,19.008 L90.452,20.52 L83.268,20.52 L83.268,9 L90.452,9 L90.452,10.512 L85.148,10.512 L85.148,13.984 L89.388,13.984 L89.388,15.448 L85.148,15.448 L85.148,19.008 L90.46,19.008 Z M64.412,37.84 L61.644,35.064 L58.852,37.856 L57.94,36.936 L60.724,34.152 L58.044,31.472 L58.956,30.552 L61.636,33.232 L64.3,30.568 L65.22,31.488 L62.556,34.152 L65.324,36.92 L64.412,37.84 Z M18.584,52.872 C19.0000021,52.872 19.3666651,52.8186672 19.684,52.712 C20.0013349,52.6053328 20.2653323,52.4546676 20.476,52.26 C20.6866677,52.0653324 20.8453328,51.8293347 20.952,51.552 C21.0586672,51.2746653 21.112,50.965335 21.112,50.624 C21.112,50.2879983 21.0600005,49.986668 20.956,49.72 C20.8519995,49.453332 20.696001,49.2266676 20.488,49.04 C20.279999,48.8533324 20.0173349,48.7106672 19.7,48.612 C19.3826651,48.5133328 19.0106688,48.464 18.584,48.464 L16.872,48.464 L16.872,52.872 L18.584,52.872 Z M18.584,47 C19.3360038,47 19.9879972,47.0879991 20.54,47.264 C21.0920028,47.4400009 21.5479982,47.6866651 21.908,48.004 C22.2680018,48.3213349 22.5359991,48.7026644 22.712,49.148 C22.8880009,49.5933356 22.976,50.0853306 22.976,50.624 C22.976,51.1733361 22.8826676,51.6759977 22.696,52.132 C22.5093324,52.5880023 22.2320018,52.9799984 21.864,53.308 C21.4959982,53.6360016 21.0386694,53.8919991 20.492,54.076 C19.9453306,54.2600009 19.309337,54.352 18.584,54.352 L16.872,54.352 L16.872,58.52 L15,58.52 L15,47 L18.584,47 Z M36.064,54.2 L34.48,49.992 C34.3519994,49.666665 34.221334,49.2533358 34.088,48.752 C34.029333,49.0026679 33.9653337,49.2333323 33.896,49.444 C33.8266663,49.6546677 33.762667,49.8399992 33.704,50 L32.12,54.2 L36.064,54.2 Z M39.608,58.52 L38.16,58.52 C37.9946658,58.52 37.8613338,58.4786671 37.76,58.396 C37.6586662,58.3133329 37.5813336,58.2106673 37.528,58.088 L36.568,55.544 L31.608,55.544 L30.648,58.088 C30.6053331,58.1946672 30.5306672,58.2933329 30.424,58.384 C30.3173328,58.4746671 30.1840008,58.52 30.024,58.52 L28.576,58.52 L33.144,47 L35.04,47 L39.608,58.52 Z M48.832,58.52 L46.952,58.52 L46.952,47 L48.832,47 L48.832,58.52 Z M67.104,47 L67.104,58.52 L66.152,58.52 C66.0079993,58.52 65.8853338,58.4946669 65.784,58.444 C65.6826662,58.3933331 65.5866671,58.3093339 65.496,58.192 L59.168,50.064 C59.1840001,50.2186674 59.196,50.3719992 59.204,50.524 C59.212,50.6760008 59.216,50.8159994 59.216,50.944 L59.216,58.52 L57.568,58.52 L57.568,47 L58.544,47 C58.6240004,47 58.6919997,47.004 58.748,47.012 C58.8040003,47.02 58.8559998,47.0346666 58.904,47.056 C58.9520002,47.0773334 58.9973331,47.1093331 59.04,47.152 C59.0826669,47.1946669 59.1279998,47.2479997 59.176,47.312 L65.512,55.448 C65.4959999,55.2826658 65.484,55.1200008 65.476,54.96 C65.468,54.7999992 65.464,54.6506674 65.464,54.512 L65.464,47 L67.104,47 Z M77.728,48.512 L77.728,52.2 L82.232,52.2 L82.232,53.712 L77.728,53.712 L77.728,58.52 L75.848,58.52 L75.848,47 L83.032,47 L83.032,48.512 L77.728,48.512 Z M95.44,57.008 C95.8826689,57.008 96.2786649,56.9333341 96.628,56.784 C96.9773351,56.6346659 97.2733321,56.426668 97.516,56.16 C97.7586679,55.893332 97.9439994,55.5720019 98.072,55.196 C98.2000006,54.8199981 98.264,54.402669 98.264,53.944 L98.264,47 L100.128,47 L100.128,53.944 C100.128,54.6213367 100.020001,55.2479971 99.804,55.824 C99.5879989,56.4000029 99.2773354,56.8973312 98.872,57.316 C98.4666646,57.7346688 97.9746696,58.0626655 97.396,58.3 C96.8173304,58.5373345 96.165337,58.656 95.44,58.656 C94.714663,58.656 94.0626696,58.5373345 93.484,58.3 C92.9053304,58.0626655 92.4133354,57.7346688 92.008,57.316 C91.6026646,56.8973312 91.2920011,56.4000029 91.076,55.824 C90.8599989,55.2479971 90.752,54.6213367 90.752,53.944 L90.752,47 L92.624,47 L92.624,53.936 C92.624,54.394669 92.6879994,54.8119981 92.816,55.188 C92.9440006,55.5640019 93.1279988,55.8866653 93.368,56.156 C93.6080012,56.4253347 93.9026649,56.6346659 94.252,56.784 C94.6013351,56.9333341 94.9973311,57.008 95.44,57.008 Z M115.384,56.952 L115.384,58.52 L108.728,58.52 L108.728,47 L110.6,47 L110.6,56.952 L115.384,56.952 Z" id="Pure-×-Painful"></path>
        </g>
    </g>
</svg>